<mxfile host="65bd71144e" modified="2021-01-21T09:40:43.209Z" agent="5.0 (Windows NT 10.0; Win64; x64) AppleWebKit/537.36 (KHTML, like Gecko) Code/1.52.1 Chrome/83.0.4103.122 Electron/9.3.5 Safari/537.36" etag="gDBkQDOE4TwUHlDd8V8J" version="13.10.0" type="embed">
    <diagram id="i3WkBhxabIRbYz-CVXaw" name="Page-1">
        <mxGraphModel dx="353" dy="790" grid="1" gridSize="10" guides="1" tooltips="1" connect="1" arrows="1" fold="1" page="1" pageScale="1" pageWidth="850" pageHeight="1100" math="0" shadow="0">
            <root>
                <mxCell id="0"/>
                <mxCell id="1" parent="0"/>
                <mxCell id="18" value="" style="rounded=0;whiteSpace=wrap;html=1;labelBackgroundColor=none;fillColor=#eeeeee;strokeColor=none;" parent="1" vertex="1">
                    <mxGeometry y="170" width="680" height="610" as="geometry"/>
                </mxCell>
                <mxCell id="2" value="&lt;font color=&quot;#1a1a1a&quot; style=&quot;font-size: 18px&quot;&gt;Overlay App&lt;/font&gt;" style="rounded=0;whiteSpace=wrap;html=1;fontColor=#ffffff;verticalAlign=bottom;strokeColor=#006EAF;fillColor=#006EAF;" parent="1" vertex="1">
                    <mxGeometry x="30" y="200" width="280" height="230" as="geometry"/>
                </mxCell>
                <mxCell id="3" value="&lt;font color=&quot;#1a1a1a&quot;&gt;&lt;br&gt;&lt;font style=&quot;font-size: 18px&quot;&gt;Target App&lt;/font&gt;&lt;/font&gt;" style="rounded=0;whiteSpace=wrap;html=1;verticalAlign=bottom;fontColor=#ffffff;fillColor=#006EAF;strokeColor=none;" parent="1" vertex="1">
                    <mxGeometry x="380" y="200" width="270" height="230" as="geometry"/>
                </mxCell>
                <mxCell id="13" value="&lt;font style=&quot;font-size: 16px&quot;&gt;icon_one&lt;/font&gt;" style="edgeStyle=orthogonalEdgeStyle;rounded=0;orthogonalLoop=1;jettySize=auto;html=1;entryX=1;entryY=0.5;entryDx=0;entryDy=0;labelBackgroundColor=none;fontColor=#1A1A1A;strokeColor=#000000;" parent="1" source="4" target="8" edge="1">
                    <mxGeometry x="-0.4286" relative="1" as="geometry">
                        <mxPoint as="offset"/>
                    </mxGeometry>
                </mxCell>
                <mxCell id="4" value="&lt;font style=&quot;font-size: 17px&quot; color=&quot;#1a1a1a&quot;&gt;Overlayable&lt;/font&gt;" style="rounded=1;whiteSpace=wrap;html=1;fontColor=#ffffff;strokeColor=#B09500;fillColor=#CFB600;" parent="1" vertex="1">
                    <mxGeometry x="470" y="230" width="120" height="60" as="geometry"/>
                </mxCell>
                <mxCell id="15" value="&lt;font style=&quot;font-size: 16px&quot;&gt;icon_one&lt;/font&gt;" style="edgeStyle=orthogonalEdgeStyle;rounded=0;orthogonalLoop=1;jettySize=auto;html=1;entryX=1;entryY=0.5;entryDx=0;entryDy=0;labelBackgroundColor=none;fontColor=#1A1A1A;strokeColor=#000000;" parent="1" source="5" target="6" edge="1">
                    <mxGeometry x="-0.5" relative="1" as="geometry">
                        <mxPoint as="offset"/>
                    </mxGeometry>
                </mxCell>
                <mxCell id="5" value="&lt;font color=&quot;#333333&quot; style=&quot;font-size: 18px&quot;&gt;Overlay&lt;/font&gt;" style="rounded=1;whiteSpace=wrap;html=1;fontColor=#ffffff;strokeColor=#B09500;fillColor=#CFB600;" parent="1" vertex="1">
                    <mxGeometry x="110" y="230" width="120" height="60" as="geometry"/>
                </mxCell>
                <mxCell id="6" value="" style="triangle;whiteSpace=wrap;html=1;fontColor=#ffffff;strokeColor=#2D7600;fillColor=#33FF33;" parent="1" vertex="1">
                    <mxGeometry x="50" y="290" width="60" height="80" as="geometry"/>
                </mxCell>
                <mxCell id="8" value="" style="ellipse;whiteSpace=wrap;html=1;aspect=fixed;fontColor=#ffffff;strokeColor=#2D7600;fillColor=#33FF33;" parent="1" vertex="1">
                    <mxGeometry x="410" y="300" width="60" height="60" as="geometry"/>
                </mxCell>
                <mxCell id="9" value="" style="endArrow=classic;html=1;exitX=0.5;exitY=1;exitDx=0;exitDy=0;strokeColor=#000000;entryX=0.378;entryY=0;entryDx=0;entryDy=0;entryPerimeter=0;" parent="1" source="2" target="11" edge="1">
                    <mxGeometry width="50" height="50" relative="1" as="geometry">
                        <mxPoint x="310" y="420" as="sourcePoint"/>
                        <mxPoint x="320" y="530" as="targetPoint"/>
                    </mxGeometry>
                </mxCell>
                <mxCell id="16" value="&lt;font color=&quot;#00cc66&quot;&gt;Enabled&lt;br&gt;&lt;/font&gt;" style="edgeLabel;html=1;align=center;verticalAlign=middle;resizable=0;points=[];fontColor=#1A1A1A;labelBackgroundColor=none;" parent="9" vertex="1" connectable="0">
                    <mxGeometry x="-0.1534" y="-3" relative="1" as="geometry">
                        <mxPoint x="1" as="offset"/>
                    </mxGeometry>
                </mxCell>
                <mxCell id="10" value="" style="endArrow=classic;html=1;exitX=0.5;exitY=1;exitDx=0;exitDy=0;strokeColor=#000000;entryX=0.622;entryY=0.004;entryDx=0;entryDy=0;entryPerimeter=0;" parent="1" source="3" target="11" edge="1">
                    <mxGeometry width="50" height="50" relative="1" as="geometry">
                        <mxPoint x="520" y="420" as="sourcePoint"/>
                        <mxPoint x="330" y="530" as="targetPoint"/>
                    </mxGeometry>
                </mxCell>
                <mxCell id="11" value="&lt;font color=&quot;#1a1a1a&quot;&gt;&lt;br&gt;&lt;font style=&quot;font-size: 18px&quot;&gt;Target App&lt;/font&gt;&lt;/font&gt;" style="rounded=0;whiteSpace=wrap;html=1;verticalAlign=bottom;fontColor=#ffffff;fillColor=#006EAF;strokeColor=none;" parent="1" vertex="1">
                    <mxGeometry x="210" y="520" width="270" height="230" as="geometry"/>
                </mxCell>
                <mxCell id="12" value="" style="triangle;whiteSpace=wrap;html=1;fontColor=#ffffff;strokeColor=none;fillColor=#33FF33;" parent="1" vertex="1">
                    <mxGeometry x="315" y="595" width="60" height="80" as="geometry"/>
                </mxCell>
                <mxCell id="19" value="&lt;font style=&quot;font-size: 15px&quot;&gt;icon_one&lt;/font&gt;" style="text;html=1;strokeColor=none;fillColor=none;align=center;verticalAlign=middle;whiteSpace=wrap;rounded=0;labelBackgroundColor=none;fontColor=#1A1A1A;" parent="1" vertex="1">
                    <mxGeometry x="400" y="625" width="40" height="20" as="geometry"/>
                </mxCell>
            </root>
        </mxGraphModel>
    </diagram>
</mxfile>